<svg width="54" height="48" viewBox="0 0 54 48" fill="none" xmlns="http://www.w3.org/2000/svg">
<path d="M43.7191 47.8121C41.7517 47.8121 39.7955 47.1694 38.1991 45.9856C36.5578 44.7679 35.3773 43.088 34.7927 41.1262C34.6354 40.585 34.3431 40.3708 33.781 40.3708C31.3864 40.3821 29.0592 40.3821 26.8558 40.3821C24.4274 40.3821 22.0553 40.3821 19.7732 40.3708C19.0986 40.3708 18.8963 40.7429 18.7614 41.1375C17.536 45.0047 13.9947 47.5979 9.94746 47.5979C9.70013 47.5979 9.44157 47.5866 9.18299 47.5641C7.30554 47.4175 5.46182 46.6508 4.00034 45.3993C2.4714 44.0915 1.41462 42.3552 0.953694 40.3596C0.380341 37.913 0.886246 35.2747 2.33649 33.1212C3.77549 30.9903 6.00145 29.5472 8.44101 29.1751C8.94691 29.0962 9.45281 29.0623 9.93622 29.0623C10.667 29.0623 11.3977 29.1525 12.0947 29.3329C12.2184 29.3668 12.3196 29.378 12.4095 29.378C12.7693 29.378 12.9491 29.1413 13.0503 28.9609C14.8491 25.8603 16.6816 22.7034 18.4466 19.6593L20.2228 16.6151C20.2566 16.5587 20.2791 16.4911 20.2903 16.446C20.2903 16.4347 20.3015 16.4235 20.3015 16.4122L20.3802 16.2092L20.2341 16.0514C18.4128 14.1572 17.4573 11.7219 17.536 9.18512C17.6147 6.67087 18.7164 4.2581 20.5489 2.5669C22.2127 1.03354 24.4274 0.199219 26.7771 0.199219C29.1492 0.199219 31.3751 1.05609 33.039 2.60072C34.849 4.28065 35.9395 6.68215 36.0069 9.18512C36.0856 11.7219 35.1188 14.1572 33.2975 16.0627L33.1177 16.2431L40.7399 29.3217L40.9535 29.3104C41.3245 29.2878 41.6842 29.254 42.044 29.2202C42.7185 29.1525 43.3481 29.0962 43.9776 29.0962C44.0563 29.0962 44.135 29.0962 44.2137 29.0962C46.2823 29.1525 48.3284 29.9756 49.9585 31.43C51.5886 32.8732 52.6566 34.8124 52.9714 36.8757C53.3312 39.2208 52.8477 41.5885 51.5999 43.5277C50.352 45.467 48.4183 46.8763 46.1586 47.4851C45.3492 47.6994 44.5397 47.8121 43.7191 47.8121ZM43.5504 33.1663C40.6724 33.2001 38.4352 35.4889 38.4465 38.3752C38.4577 41.1826 40.7399 43.4714 43.5392 43.4826H43.5617C44.922 43.4826 46.2036 42.9414 47.1817 41.9606C48.1597 40.9797 48.6994 39.6718 48.6994 38.2963C48.6881 35.5114 46.361 33.1663 43.6066 33.1663H43.5504ZM10.0037 33.1663C7.1594 33.1776 4.85474 35.5002 4.85474 38.3527C4.85474 41.1375 7.19312 43.4826 9.96995 43.4826H10.0037C12.8142 43.4601 15.1076 41.1488 15.1076 38.3301C15.1076 35.4776 12.8255 33.1663 10.0262 33.1663H10.0037ZM24.405 18.4191C24.0115 18.4191 23.8091 18.6784 23.663 18.9264C22.5275 20.8995 21.3583 22.9064 20.2341 24.8456L16.333 31.5428L16.5017 31.7232C17.6596 32.9521 18.4241 34.26 18.8513 35.7369C18.9412 36.0301 19.3347 36.2556 19.6158 36.2668C21.9766 36.2781 24.315 36.2781 26.5747 36.2781C26.5747 36.2781 26.5747 36.2781 26.5859 36.2781C29.0817 36.2781 31.555 36.2781 33.9496 36.2668C34.2531 36.2668 34.6354 35.985 34.7253 35.6918C35.1525 34.2825 35.8608 33.0423 36.8276 32.005C37.2098 31.5879 37.0862 31.2384 36.9288 30.9678C34.5567 26.9202 32.1846 22.85 29.8799 18.8813C29.8012 18.746 29.6101 18.4191 29.1829 18.4191C29.093 18.4191 28.9918 18.4303 28.8793 18.4642C28.1711 18.6558 27.4516 18.746 26.7546 18.746C26.0688 18.746 25.3943 18.6558 24.731 18.4754C24.6073 18.4416 24.4949 18.4191 24.405 18.4191ZM26.7883 4.30319C25.4168 4.30319 24.1239 4.85565 23.1458 5.83655C22.1677 6.81744 21.6394 8.1253 21.6394 9.48954C21.6506 12.2631 23.989 14.6082 26.7546 14.6082H26.7995C29.6326 14.5744 31.926 12.2631 31.9147 9.44444C31.9035 6.64832 29.5651 4.29192 26.7995 4.29192L26.7883 4.30319Z" fill="#FA4A6F"/>
<circle cx="9.83759" cy="38.7282" r="5.65985" fill="#532B79"/>
<circle cx="26.695" cy="9.33954" r="5.65985" fill="#532B79"/>
<circle cx="43.7907" cy="38.7282" r="5.65985" fill="#532B79"/>
</svg>
