<svg width="51" height="48" viewBox="0 0 51 48" fill="none" xmlns="http://www.w3.org/2000/svg">
<path d="M30.6718 29.7967C29.0992 29.7967 27.4967 29.7867 25.7648 29.7668C23.9533 29.7469 23.1272 28.5319 22.739 27.5062C22.2214 26.1319 22.4902 24.8771 23.5154 23.7716C23.5651 23.7218 23.6149 23.6621 23.6746 23.6023L23.9334 23.3334L23.804 23.1343C22.8883 21.7002 22.2115 20.1267 21.7935 18.4536C20.818 14.5598 21.5446 10.3572 23.7642 6.91143C25.9639 3.50553 29.4475 1.15526 33.3293 0.448188C34.255 0.278889 35.1807 0.199219 36.1063 0.199219C42.8945 0.199219 48.6176 4.66075 50.3495 11.3033C51.086 14.1216 50.9666 16.9997 50.0011 19.8379C49.7025 20.7242 49.0755 21.262 48.3389 21.262C48.1399 21.262 47.9408 21.2222 47.7417 21.1525C46.826 20.8238 46.4279 19.818 46.7862 18.7425C48.0801 14.8784 47.5426 11.3331 45.1837 8.19611C42.8646 5.11885 39.9184 3.55533 36.4149 3.55533C35.5688 3.55533 34.6929 3.65491 33.8071 3.83417C29.1589 4.81013 26.1331 7.82764 25.0581 12.5581C24.2519 16.1133 25.0681 19.4197 27.4868 22.3973C28.1735 23.2438 28.1138 24.16 27.3175 24.9169C27.0986 25.1161 26.8796 25.3152 26.6407 25.5244C26.5213 25.624 26.4018 25.7335 26.2824 25.8431L25.8146 26.2613L26.4317 26.3609C26.4914 26.3709 26.5312 26.3808 26.571 26.3908C26.6507 26.4107 26.7203 26.4207 26.8 26.4207H28.721C31.2093 26.4207 33.7772 26.4107 36.3054 26.4007C37.7984 26.3908 39.2914 26.0522 40.7545 25.385C41.0431 25.2555 41.3218 25.1858 41.5806 25.1858C41.929 25.1858 42.2475 25.3053 42.566 25.5343C43.0537 25.9028 43.3025 26.4505 43.2428 27.0381C43.1831 27.6257 42.8049 28.1435 42.2375 28.4224C40.4957 29.2589 38.933 29.6772 37.46 29.717C35.2802 29.7668 33.0706 29.7967 30.6718 29.7967Z" fill="#532B79"/>
<path d="M2.47423 47.7923C1.85712 47.7923 1.3296 47.5931 0.971282 47.2246C0.612963 46.8562 0.433799 46.3483 0.443752 45.7308C0.523379 41.9266 2.02633 39.0286 5.05214 36.8675C5.1019 36.8277 5.16162 36.7878 5.22134 36.738L5.33083 36.6584L5.60952 36.4492L5.37064 36.2102C3.71839 34.5471 2.8226 32.406 2.86241 30.1752C2.90222 27.9743 3.83783 25.8531 5.45027 24.3493C6.93331 22.9651 8.88416 22.1982 10.9644 22.1982C13.1044 22.1982 15.1149 23.0049 16.6179 24.4688C18.1706 25.9826 19.0664 28.0839 19.0863 30.235C19.1062 32.4259 18.2204 34.5471 16.588 36.1903L16.3591 36.4293L16.6179 36.6385C16.7572 36.748 16.8866 36.8476 17.026 36.9571C17.3047 37.1762 17.6033 37.4053 17.872 37.6443C20.3603 39.8651 21.5746 42.7233 21.4751 46.169C21.4452 47.0753 20.6987 47.7724 19.7333 47.7823C19.4446 47.7923 19.1361 47.7923 18.7479 47.7923C18.499 47.7923 18.2502 47.7923 18.0014 47.7923C17.7525 47.7923 17.5037 47.7923 17.2549 47.7923H17.225C15.8813 47.7923 14.5376 47.7923 13.1939 47.7923C11.8502 47.7923 10.5066 47.7923 9.16286 47.7923C6.56504 47.7923 4.45493 47.8022 2.53395 47.8122L2.47423 47.7923ZM10.9047 38.4211C10.7852 38.4211 10.6758 38.4211 10.5563 38.431C9.07328 38.5008 7.47079 39.1779 6.15695 40.3132C4.82321 41.4585 4.06676 42.8328 4.06676 44.0777V44.3764H17.872L17.8322 44.0378C17.6729 42.7731 16.9165 41.3988 15.8017 40.3531C14.876 39.4668 13.2636 38.4211 10.9047 38.4211ZM10.9246 25.5743C8.32677 25.5743 6.21668 27.7054 6.22663 30.3146C6.22663 32.9238 8.34668 35.0351 10.9545 35.0351C13.5622 35.0351 15.6823 32.9139 15.6922 30.3146C15.6922 29.0499 15.2045 27.8648 14.3087 26.9685C13.403 26.0722 12.2086 25.5743 10.9246 25.5743Z" fill="#FA4A6F"/>
<path d="M36.0465 16.7006C34.6033 16.7006 33.16 16.7006 31.7069 16.6907C30.7513 16.6907 30.0546 16.0732 29.9352 15.1271C29.8356 14.3603 30.403 13.5736 31.1893 13.3644C31.3684 13.3146 31.5874 13.3146 31.7964 13.3047C32.5131 13.3047 33.2397 13.3047 33.9563 13.3047H36.156C36.584 13.3047 38.2959 13.3047 38.7239 13.3047C39.2913 13.3047 39.8586 13.3047 40.4359 13.3047C40.9833 13.3047 41.471 13.4939 41.7895 13.8225C42.0881 14.1213 42.2474 14.5396 42.2474 15.0076C42.2374 15.9836 41.481 16.6907 40.4458 16.6907C38.9827 16.7006 37.5196 16.7006 36.0465 16.7006Z" fill="#532B79"/>
</svg>
