<svg width="168" height="69" viewBox="0 0 168 69" fill="none" xmlns="http://www.w3.org/2000/svg">
<path d="M0 13.6694C0 7.2072 6.03741 2.44186 12.3229 3.94297L28.9332 7.90987L45.5435 3.94297C51.829 2.44186 57.8664 7.2072 57.8664 13.6694V53.3726C57.8664 59.8348 51.829 64.6001 45.5435 63.099L31.2561 59.6869C29.729 59.3222 28.1374 59.3222 26.6103 59.6869L12.3229 63.099C6.03742 64.6001 0 59.8348 0 53.3726V13.6694Z" fill="url(#paint0_linear_56_5)"/>
<path d="M28.8162 12.2261L28.9323 12.2538L29.0485 12.2261L31.7781 11.5742L31.6619 11.0879L38.4859 9.45814L38.6021 9.94446L41.3317 9.29257C41.9664 9.141 42.5976 9.05674 43.219 9.03429L43.201 8.53462C44.9258 8.47232 46.5832 8.86218 48.0465 9.60425L47.8203 10.0502C48.9566 10.6264 49.9699 11.4262 50.7943 12.3976L51.1755 12.074C52.2372 13.3249 53.0014 14.8464 53.3415 16.5385L52.8513 16.637C52.9738 17.2466 53.0384 17.8802 53.0384 18.5327V20.7531H53.5384V26.3042H53.0384V30.7451H53.5384V36.2962H53.0384V40.737H53.5384V46.2881H53.0384V48.5085C53.0384 49.1611 52.9738 49.7946 52.8513 50.4043L53.3415 50.5028C53.0014 52.1949 52.2372 53.7163 51.1755 54.9673L50.7943 54.6437C49.9699 55.615 48.9566 56.4149 47.8203 56.9911L48.0465 57.437C46.5832 58.1791 44.9258 58.569 43.201 58.5067L43.219 58.007C42.5976 57.9845 41.9664 57.9003 41.3317 57.7487L39.1183 57.2201L39.0022 57.7064L33.4686 56.3849L33.5848 55.8986L31.3713 55.3699C31.0157 55.285 30.6568 55.2189 30.296 55.1717L30.231 55.6674C29.3689 55.5545 28.4957 55.5545 27.6336 55.6674L27.5687 55.1717C27.2079 55.2189 26.8489 55.285 26.4933 55.3699L24.2799 55.8986L24.396 56.3849L18.8625 57.7064L18.7463 57.2201L16.5329 57.7487C15.8982 57.9003 15.267 57.9845 14.6456 58.007L14.6636 58.5066C12.9388 58.5689 11.2815 58.1791 9.81814 57.437L10.0443 56.9911C8.90803 56.4149 7.89471 55.615 7.0703 54.6437L6.6891 54.9673C5.62741 53.7163 4.86322 52.1949 4.52316 50.5028L5.01336 50.4043C4.89085 49.7946 4.82617 49.1611 4.82617 48.5085V46.2881H4.32617V40.737H4.82617V36.2962H4.32617V30.7451H4.82617V26.3042H4.32617V20.7532H4.82617V18.5327C4.82617 17.8802 4.89085 17.2466 5.01336 16.637L4.52316 16.5385C4.86322 14.8464 5.6274 13.3249 6.68909 12.074L7.0703 12.3976C7.8947 11.4262 8.90802 10.6264 10.0443 10.0502L9.81813 9.60425C11.2814 8.86218 12.9388 8.47232 14.6636 8.53461L14.6456 9.03429C15.267 9.05673 15.8982 9.141 16.5329 9.29257L19.2625 9.94446L19.3787 9.45814L26.2027 11.0879L26.0866 11.5742L28.8162 12.2261Z" stroke="white" stroke-opacity="0.5" stroke-dasharray="4 5"/>
<path d="M27.7476 53.306C27.5961 53.0978 27.4635 52.8705 27.2931 52.7001C21.1395 46.5465 14.9859 40.374 8.81342 34.2394C8.39687 33.8228 8.3022 33.4441 8.43473 32.914C9.60865 28.3508 13.6795 25.3592 18.6024 25.4729C22.9193 25.5675 26.8766 28.9757 27.7665 33.3873C27.8801 33.9364 27.9558 34.4855 27.9558 35.0346C27.9748 40.961 27.9558 46.8684 27.9558 52.7948C27.9558 52.9084 27.9369 53.041 27.9369 53.1546C27.8801 53.2114 27.8233 53.2492 27.7476 53.306Z" fill="white"/>
<path d="M29.9121 53.3064C29.9121 52.8899 29.9121 52.6059 29.9121 52.3408C29.9121 46.7742 29.9121 41.2265 29.9121 35.6598C29.9121 29.563 34.6267 25.1135 40.7046 25.4922C44.7754 25.7383 48.6948 29.1276 49.4711 33.1227C49.5279 33.4067 49.4332 33.8421 49.2439 34.0504C42.9388 40.3934 36.5959 46.7174 30.2719 53.0414C30.1961 53.0982 30.1015 53.155 29.9121 53.3064Z" fill="#FA4A6F"/>
<path d="M13.0177 18.7902C12.9988 16.0448 15.233 13.7727 17.9974 13.7348C20.7428 13.697 23.0907 16.0069 23.0907 18.7713C23.0907 21.4978 20.8186 23.7889 18.092 23.8267C15.3655 23.8646 13.0366 21.5736 13.0177 18.7902Z" fill="white"/>
<path d="M44.8512 18.866C44.7755 21.6683 42.4466 23.9214 39.7011 23.8267C36.9368 23.751 34.6836 21.3653 34.7783 18.6199C34.8729 15.9123 37.1829 13.697 39.8715 13.7349C42.6738 13.7727 44.927 16.1016 44.8512 18.866Z" fill="#FA4A6F"/>
<path d="M68.756 23.576C69.162 24.2913 69.6163 24.91 70.119 25.432C70.6217 25.9347 71.1727 26.3213 71.772 26.592C72.3713 26.8627 72.99 26.998 73.628 26.998C74.2467 26.998 74.759 26.8627 75.165 26.592C75.571 26.302 75.774 25.8863 75.774 25.345C75.774 24.9583 75.658 24.6393 75.426 24.388C75.194 24.1173 74.788 23.8467 74.208 23.576C73.6473 23.3053 72.8547 22.9767 71.83 22.59C71.3273 22.3967 70.7667 22.1453 70.148 21.836C69.5293 21.5073 68.93 21.0917 68.35 20.589C67.7893 20.0863 67.3157 19.4677 66.929 18.733C66.5617 17.9983 66.378 17.1283 66.378 16.123C66.378 14.847 66.7163 13.774 67.393 12.904C68.0697 12.0147 68.9687 11.338 70.09 10.874C71.2113 10.41 72.4583 10.178 73.831 10.178C75.2617 10.178 76.499 10.41 77.543 10.874C78.587 11.3187 79.4473 11.889 80.124 12.585C80.8007 13.2617 81.3227 13.948 81.69 14.644L77.456 16.993C77.166 16.5097 76.8277 16.1133 76.441 15.804C76.0737 15.4753 75.6773 15.224 75.252 15.05C74.8267 14.876 74.3917 14.789 73.947 14.789C73.3863 14.789 72.9417 14.905 72.613 15.137C72.2843 15.369 72.12 15.6783 72.12 16.065C72.12 16.5097 72.3037 16.8867 72.671 17.196C73.0577 17.486 73.5797 17.7663 74.237 18.037C74.9137 18.2883 75.687 18.5687 76.557 18.878C77.311 19.1487 77.9973 19.4773 78.616 19.864C79.254 20.2313 79.805 20.676 80.269 21.198C80.733 21.7007 81.0907 22.2807 81.342 22.938C81.5933 23.5953 81.719 24.33 81.719 25.142C81.719 26.2247 81.4967 27.1817 81.052 28.013C80.6267 28.8443 80.037 29.5403 79.283 30.101C78.5483 30.6423 77.7073 31.0483 76.76 31.319C75.8127 31.609 74.846 31.754 73.86 31.754C72.468 31.754 71.1727 31.5123 69.974 31.029C68.7947 30.565 67.77 29.927 66.9 29.115C66.03 28.2837 65.3727 27.3653 64.928 26.36L68.756 23.576ZM89.6487 25.78C89.6487 26.476 89.7647 27.0173 89.9967 27.404C90.2287 27.7713 90.6637 27.955 91.3017 27.955C91.727 27.955 92.0847 27.8777 92.3747 27.723C92.6647 27.5683 92.887 27.3267 93.0417 26.998C93.2157 26.6693 93.3027 26.2633 93.3027 25.78V17.66H98.3197V31H93.3027V29.028C92.916 29.724 92.3844 30.2847 91.7077 30.71C91.0504 31.116 90.219 31.319 89.2137 31.319C87.4737 31.319 86.2364 30.884 85.5017 30.014C84.767 29.1247 84.3997 27.8873 84.3997 26.302V17.66H89.6487V25.78ZM110.176 22.88C110.176 22.184 110.06 21.6523 109.828 21.285C109.596 20.8983 109.151 20.705 108.494 20.705C108.107 20.705 107.759 20.7823 107.45 20.937C107.16 21.0917 106.928 21.3333 106.754 21.662C106.599 21.9907 106.522 22.3967 106.522 22.88V31H101.505V17.66H106.522V19.632C106.889 18.936 107.402 18.385 108.059 17.979C108.736 17.5537 109.586 17.341 110.611 17.341C112.351 17.341 113.588 17.7857 114.323 18.675C115.058 19.545 115.425 20.7727 115.425 22.358V31H110.176V22.88ZM127.282 22.88C127.282 22.184 127.166 21.6523 126.934 21.285C126.702 20.8983 126.257 20.705 125.6 20.705C125.213 20.705 124.865 20.7823 124.556 20.937C124.266 21.0917 124.034 21.3333 123.86 21.662C123.705 21.9907 123.628 22.3967 123.628 22.88V31H118.611V17.66H123.628V19.632C123.995 18.936 124.507 18.385 125.165 17.979C125.841 17.5537 126.692 17.341 127.717 17.341C129.457 17.341 130.694 17.7857 131.429 18.675C132.163 19.545 132.531 20.7727 132.531 22.358V31H127.282V22.88ZM139.805 26.824C139.805 27.114 139.873 27.3653 140.008 27.578C140.163 27.7713 140.366 27.926 140.617 28.042C140.868 28.1387 141.139 28.187 141.429 28.187C141.854 28.187 142.26 28.1 142.647 27.926C143.034 27.7327 143.343 27.4427 143.575 27.056C143.826 26.65 143.952 26.1473 143.952 25.548L144.416 27.288C144.416 28.1387 144.194 28.8637 143.749 29.463C143.324 30.0623 142.734 30.5167 141.98 30.826C141.245 31.1353 140.433 31.29 139.544 31.29C138.693 31.29 137.901 31.1353 137.166 30.826C136.451 30.4973 135.871 30.0237 135.426 29.405C134.981 28.767 134.759 27.9937 134.759 27.085C134.759 25.809 135.204 24.8037 136.093 24.069C137.002 23.3343 138.307 22.967 140.008 22.967C140.743 22.967 141.429 23.0347 142.067 23.17C142.724 23.3053 143.295 23.489 143.778 23.721C144.281 23.9337 144.658 24.1753 144.909 24.446V26.563C144.522 26.2343 144.039 25.983 143.459 25.809C142.879 25.635 142.27 25.548 141.632 25.548C141.187 25.548 140.83 25.5963 140.559 25.693C140.288 25.7897 140.095 25.9347 139.979 26.128C139.863 26.302 139.805 26.534 139.805 26.824ZM137.369 22.039L135.774 18.762C136.625 18.3947 137.601 18.0563 138.703 17.747C139.824 17.4183 141.013 17.254 142.27 17.254C143.488 17.254 144.58 17.428 145.547 17.776C146.533 18.1047 147.306 18.5977 147.867 19.255C148.447 19.9123 148.737 20.7147 148.737 21.662V31H143.952V22.851C143.952 22.561 143.904 22.3 143.807 22.068C143.73 21.836 143.594 21.6427 143.401 21.488C143.208 21.314 142.956 21.1883 142.647 21.111C142.338 21.0143 141.98 20.966 141.574 20.966C141.013 20.966 140.433 21.0337 139.834 21.169C139.254 21.3043 138.742 21.459 138.297 21.633C137.852 21.807 137.543 21.9423 137.369 22.039ZM156.847 8.38V31H151.83V8.38H156.847ZM160.501 22.88C160.501 22.184 160.385 21.6523 160.153 21.285C159.921 20.8983 159.477 20.705 158.819 20.705C158.433 20.705 158.085 20.792 157.775 20.966C157.485 21.1207 157.253 21.3623 157.079 21.691C156.925 22.0003 156.847 22.3967 156.847 22.88H156.093C156.093 21.8167 156.258 20.85 156.586 19.98C156.915 19.11 157.427 18.414 158.123 17.892C158.839 17.37 159.776 17.109 160.936 17.109C162.096 17.109 163.005 17.3023 163.662 17.689C164.32 18.0757 164.793 18.646 165.083 19.4C165.373 20.1347 165.518 21.0433 165.518 22.126V31H160.501V22.88Z" fill="#23273A"/>
<path d="M79.689 38.7H85.083V60.015L71.482 48.676V59H66.088V37.685L79.689 49.024V38.7ZM88.413 40.817C88.413 40.0437 88.6837 39.4153 89.225 38.932C89.7857 38.4487 90.4527 38.207 91.226 38.207C92.0187 38.207 92.6857 38.4487 93.227 38.932C93.7877 39.4153 94.068 40.0437 94.068 40.817C94.068 41.571 93.7877 42.1897 93.227 42.673C92.6857 43.1563 92.0187 43.398 91.226 43.398C90.4527 43.398 89.7857 43.1563 89.225 42.673C88.6837 42.1897 88.413 41.571 88.413 40.817ZM88.819 45.66H93.633V59H88.819V45.66ZM96.8883 36.38H101.673V59H96.8883V36.38ZM106.487 45.66H112.432L106.748 51.17L113.012 59H107.183L100.803 51.17L106.487 45.66ZM118.933 54.824C118.933 55.114 119.001 55.3653 119.136 55.578C119.291 55.7713 119.494 55.926 119.745 56.042C119.996 56.1387 120.267 56.187 120.557 56.187C120.982 56.187 121.388 56.1 121.775 55.926C122.162 55.7327 122.471 55.4427 122.703 55.056C122.954 54.65 123.08 54.1473 123.08 53.548L123.544 55.288C123.544 56.1387 123.322 56.8637 122.877 57.463C122.452 58.0623 121.862 58.5167 121.108 58.826C120.373 59.1353 119.561 59.29 118.672 59.29C117.821 59.29 117.029 59.1353 116.294 58.826C115.579 58.4973 114.999 58.0237 114.554 57.405C114.109 56.767 113.887 55.9937 113.887 55.085C113.887 53.809 114.332 52.8037 115.221 52.069C116.13 51.3343 117.435 50.967 119.136 50.967C119.871 50.967 120.557 51.0347 121.195 51.17C121.852 51.3053 122.423 51.489 122.906 51.721C123.409 51.9337 123.786 52.1753 124.037 52.446V54.563C123.65 54.2343 123.167 53.983 122.587 53.809C122.007 53.635 121.398 53.548 120.76 53.548C120.315 53.548 119.958 53.5963 119.687 53.693C119.416 53.7897 119.223 53.9347 119.107 54.128C118.991 54.302 118.933 54.534 118.933 54.824ZM116.497 50.039L114.902 46.762C115.753 46.3947 116.729 46.0563 117.831 45.747C118.952 45.4183 120.141 45.254 121.398 45.254C122.616 45.254 123.708 45.428 124.675 45.776C125.661 46.1047 126.434 46.5977 126.995 47.255C127.575 47.9123 127.865 48.7147 127.865 49.662V59H123.08V50.851C123.08 50.561 123.032 50.3 122.935 50.068C122.858 49.836 122.722 49.6427 122.529 49.488C122.336 49.314 122.084 49.1883 121.775 49.111C121.466 49.0143 121.108 48.966 120.702 48.966C120.141 48.966 119.561 49.0337 118.962 49.169C118.382 49.3043 117.87 49.459 117.425 49.633C116.98 49.807 116.671 49.9423 116.497 50.039ZM135.975 36.38V59H130.958V36.38H135.975ZM139.629 50.88C139.629 50.184 139.513 49.6523 139.281 49.285C139.049 48.8983 138.605 48.705 137.947 48.705C137.561 48.705 137.213 48.792 136.903 48.966C136.613 49.1207 136.381 49.3623 136.207 49.691C136.053 50.0003 135.975 50.3967 135.975 50.88H135.221C135.221 49.8167 135.386 48.85 135.714 47.98C136.043 47.11 136.555 46.414 137.251 45.892C137.967 45.37 138.904 45.109 140.064 45.109C141.224 45.109 142.133 45.3023 142.79 45.689C143.448 46.0757 143.921 46.646 144.211 47.4C144.501 48.1347 144.646 49.0433 144.646 50.126V59H139.629V50.88Z" fill="#23273A"/>
<defs>
<linearGradient id="paint0_linear_56_5" x1="28.9332" y1="33.521" x2="28.9332" y2="66.042" gradientUnits="userSpaceOnUse">
<stop stop-color="#532B79"/>
<stop offset="1" stop-color="#FA4A6F"/>
</linearGradient>
</defs>
</svg>
