<svg width="46" height="53" viewBox="0 0 46 53" fill="none" xmlns="http://www.w3.org/2000/svg">
<path d="M0 23.5846C0 18.693 0 13.8014 0 8.89883C0 4.55314 2.8155 1.05912 7.06059 0.163782C7.5844 0.054594 8.14095 0 8.6866 0C15.7035 0 22.7205 0 29.7374 0C34.0589 0 37.7474 3.2538 38.3149 7.55581C38.3694 7.98165 38.4022 8.42932 38.4022 8.85515C38.4131 13.5502 38.4131 18.2453 38.4022 22.9404C38.4022 24.3926 37.0053 25.2661 35.8049 24.5673C35.1829 24.207 34.9101 23.6501 34.9101 22.9295C34.921 18.2126 34.921 13.5066 34.9101 8.78964C34.9101 6.34383 33.3714 4.31293 31.0251 3.67964C30.5559 3.54861 30.0648 3.49402 29.5737 3.49402C22.6659 3.4831 15.7581 3.4831 8.83938 3.4831C5.7947 3.49402 3.4921 5.78697 3.4921 8.83331C3.48119 18.6712 3.48119 28.5199 3.4921 38.3578C3.4921 41.3604 5.80561 43.6643 8.81755 43.6752C11.3821 43.6861 13.9466 43.6752 16.5111 43.6861C17.3732 43.6861 18.1262 44.3413 18.2244 45.1383C18.3444 46.0883 17.8315 46.8853 16.9149 47.1146C16.7293 47.1583 16.522 47.1692 16.3256 47.1692C13.7829 47.1692 11.2293 47.1802 8.6866 47.1692C3.92861 47.1583 0.0109128 43.2494 0 38.4888C0 33.5207 0 28.5527 0 23.5846Z" fill="#FA4A6F"/>
<path d="M20.9531 40.1485C20.9531 33.4116 26.4641 27.9412 33.23 27.9522C39.9414 27.9631 45.3978 33.4662 45.3978 40.214C45.3978 46.9509 39.8868 52.4212 33.1209 52.4103C26.4204 52.3994 20.9531 46.8963 20.9531 40.1485ZM41.9057 40.1594C41.8948 35.3442 37.9662 31.4353 33.1427 31.4462C28.3629 31.4571 24.4452 35.377 24.4452 40.1703C24.4452 44.9855 28.3738 48.9163 33.1755 48.9163C37.988 48.9163 41.9166 44.9746 41.9057 40.1594Z" fill="#532B79"/>
<path d="M19.2064 22.7111C16.3036 22.7111 13.3899 22.7111 10.4871 22.7111C9.57042 22.7111 8.82835 22.0342 8.73014 21.1607C8.63192 20.2981 9.17756 19.501 10.0397 19.2826C10.2252 19.228 10.4325 19.228 10.629 19.228C16.3364 19.228 22.0438 19.228 27.7402 19.228C28.8861 19.228 29.6718 19.9596 29.6609 20.9969C29.65 22.0014 28.8643 22.722 27.7512 22.722C24.9138 22.7111 22.0656 22.7111 19.2064 22.7111Z" fill="#FA4A6F"/>
<path d="M16.5769 13.9764C14.6017 13.9764 12.6155 13.9764 10.6403 13.9764C9.52721 13.9764 8.74149 13.2558 8.73058 12.2513C8.71967 11.214 9.5163 10.4824 10.6512 10.4824C14.6126 10.4824 18.5739 10.4824 22.5244 10.4824C23.6375 10.4824 24.4232 11.1921 24.4341 12.2076C24.445 13.2449 23.6484 13.9764 22.5135 13.9764C20.5382 13.9764 18.563 13.9764 16.5769 13.9764Z" fill="#FA4A6F"/>
<path d="M15.5619 29.6989C13.9141 29.6989 12.2553 29.6989 10.6075 29.6989C9.51619 29.6989 8.73047 28.9564 8.73047 27.941C8.74138 26.9474 9.51619 26.2158 10.5747 26.2158C13.9141 26.2158 17.2534 26.2158 20.6036 26.2158C21.6621 26.2158 22.4479 26.9583 22.4588 27.941C22.4697 28.9346 21.6621 29.6989 20.5709 29.6989C18.9121 29.6989 17.2315 29.6989 15.5619 29.6989Z" fill="#FA4A6F"/>
<path d="M13.5322 33.1934C14.4925 33.1934 15.4529 33.1934 16.4241 33.1934C17.4936 33.2043 18.2466 33.9249 18.2466 34.9404C18.2466 35.9558 17.4936 36.6874 16.4241 36.6874C14.4598 36.6983 12.5064 36.6983 10.5421 36.6874C9.49448 36.6874 8.71967 35.9121 8.73058 34.9185C8.7415 33.9468 9.5163 33.2043 10.5312 33.2043C11.5352 33.1934 12.5392 33.1934 13.5322 33.1934Z" fill="#FA4A6F"/>
<path d="M32.0073 40.4216C33.1531 39.2642 34.2226 38.1832 35.303 37.1023C36.1214 36.2834 37.169 36.2397 37.9002 36.9822C38.6314 37.7246 38.5768 38.7619 37.7474 39.5918C36.296 41.044 34.8446 42.4962 33.3932 43.9484C32.4984 44.8437 31.5271 44.8437 30.6323 43.9484C29.9229 43.2496 29.2136 42.5398 28.5152 41.8301C27.7622 41.0658 27.7404 40.0067 28.4497 39.2969C29.1481 38.5981 30.2176 38.6091 30.9815 39.3625C31.3198 39.69 31.6363 40.0394 32.0073 40.4216Z" fill="#532B79"/>
</svg>
